#!OML:ASF E:\Steps\Project 1\Capture day 1\Session 2\Subject.ASF
:FULLY-SPECIFIED
:DEGREES
373
root 11.6121 18.8444 17.6197 -154.061 4.74193 178.495
lowerback -26.1546 -3.82882 -8.6603
upperback 0.440036 -1.82623 -0.925371
thorax 14.7646 -1.23934 3.09146
lowerneck -4.09701 -2.57536 -0.247706
upperneck 22.2772 -2.87804 3.97062
head 7.56645 -0.478301 1.19921
rclavicle -1.15295e-014 -7.95139e-016
rhumerus -43.7655 -20.8095 -72.9979
rradius 29.9837
rwrist 1.63679
rhand -9.18429 -413.398
rfingers 7.12502
rthumb -163.231 97.3065
lclavicle -1.15295e-014 -7.95139e-016
lhumerus -30.0022 0.292242 81.2447
lradius 28.8309
lwrist 1.33062
lhand -23.7756 -13.357
lfingers 7.12502
lthumb 2.69411 16.6057
rfemur -33.2517 12.5466 15.021
rtibia 18.6097
rfoot -20.2629 -3.21301
rtoes -13.1878
lfemur -28.692 -4.68712 -25.9293
ltibia 15.5536
lfoot -11.6472 2.66867
ltoes -40.1831
374
root 11.6108 18.8422 17.5997 -153.972 4.83768 178.673
lowerback -26.5841 -3.79582 -8.50171
upperback 0.456076 -1.78 -0.911922
thorax 14.9848 -1.21153 3.02555
lowerneck -3.92097 -2.61386 -0.348879
upperneck 21.6909 -3.00735 4.18719
head 7.34946 -0.565862 1.27116
rclavicle 4.21423e-014 -1.43125e-014
rhumerus -43.547 -20.6421 -73.3175
rradius 30.1373
rwrist 1.13111
rhand -9.6849 -414.423
rfingers 7.12502
rthumb -163.713 96.2415
lclavicle 4.21423e-014 -1.43125e-014
lhumerus -30.0276 0.369384 81.1665
lradius 28.5983
lwrist 1.1301
lhand -23.928 -13.2903
lfingers 7.12502
lthumb 2.54689 16.6743
rfemur -33.1332 12.5576 15.2449
rtibia 18.3328
rfoot -20.0896 -3.09859
rtoes -13.5463
lfemur -28.6635 -4.56559 -25.7516
ltibia 15.4809
lfoot -11.7944 2.73708
ltoes -40.1762
375
root 11.6049 18.8428 17.5724 -153.979 4.96517 178.708
lowerback -27.0785 -3.77836 -8.43042
upperback 0.579431 -1.70802 -0.971622
thorax 15.3582 -1.18479 2.93327
lowerneck -3.98322 -2.61631 -0.278353
upperneck 21.2841 -3.07705 4.24855
head 7.22894 -0.616989 1.26798
rclavicle -1.33186e-014 3.57812e-014
rhumerus -43.2249 -20.7327 -73.5399
rradius 30.1453
rwrist 1.23935
rhand -9.34151 -413.723
rfingers 7.12502
rthumb -163.382 96.9683
lclavicle -1.33186e-014 3.57812e-014
lhumerus -29.9572 0.314028 81.081
lradius 28.3633
lwrist 0.949148
lhand -23.9864 -13.2578
lfingers 7.12502
lthumb 2.49051 16.7075
rfemur -32.8907 12.3827 15.3254
rtibia 18.0673
rfoot -19.876 -2.81239
rtoes -13.749
lfemur -28.4213 -4.64077 -25.7512
ltibia 15.2628
lfoot -11.8754 2.91827
ltoes -40.0815
376
root 11.6 18.8426 17.5552 -153.868 5.06136 178.603
lowerback -27.4259 -3.84259 -8.52978
upperback 0.565595 -1.69196 -1.04798
thorax 15.5077 -1.17726 2.90038
lowerneck -4.072 -2.53156 -0.102589
upperneck 21.0276 -2.996 4.16798
head 7.15514 -0.58975 1.21393
rclavicle 2.36554e-014 1.51076e-014
rhumerus -42.9496 -20.7902 -73.8237
rradius 30.1145
rwrist 1.05107
rhand -9.52991 -412.439
rfingers 7.12502
rthumb -163.564 98.2376
lclavicle 2.36554e-014 1.51076e-014
lhumerus -29.9842 0.351899 80.9448
lradius 28.0155
lwrist 0.728965
lhand -23.912 -13.228
lfingers 7.12502
lthumb 2.5623 16.7364
rfemur -32.8344 12.0652 15.2326
rtibia 17.8138
rfoot -19.7528 -2.48157
rtoes -13.8094
lfemur -28.4131 -4.73652 -25.8997
ltibia 15.1546
lfoot -11.9534 3.04531
ltoes -40.6259
377
root 11.5997 18.8452 17.5457 -153.837 5.05326 178.601
lowerback -27.543 -3.89653 -8.58518
upperback 0.545141 -1.72257 -1.06029
thorax 15.5443 -1.19104 2.90179
lowerneck -4.17921 -2.33575 0.0729029
upperneck 20.6971 -2.75182 3.99479
head 7.05589 -0.497741 1.1409
rclavicle 5.1684e-015 -1.03368e-014
rhumerus -42.6703 -20.9983 -73.9482
rradius 29.9771
rwrist 1.09997
rhand -10.1544 -412.116
rfingers 7.12502
rthumb -164.165 98.5111
lclavicle 5.1684e-015 -1.03368e-014
lhumerus -29.9213 0.745608 80.7622
lradius 27.5029
lwrist 0.2993
lhand -23.7988 -13.3442
lfingers 7.12502
lthumb 2.67172 16.6188
rfemur -32.7099 12.0607 15.253
rtibia 17.616
rfoot -19.7423 -2.4843
rtoes -13.8756
lfemur -28.3806 -4.67592 -25.9123
ltibia 15.1042
lfoot -12.0581 3.00031
ltoes -41.4977
378
root 11.5984 18.8474 17.5289 -153.886 4.99686 178.64
lowerback -27.2859 -3.93519 -8.52865
upperback 0.305384 -1.80915 -1.07374
thorax 15.1463 -1.19695 2.83586
lowerneck -4.40287 -2.59128 0.0942754
upperneck 20.7379 -3.14413 4.05994
head 7.11863 -0.680311 1.12754
rclavicle -3.97569e-015 1.35174e-014
rhumerus -42.8488 -21.057 -73.856
rradius 29.8641
rwrist 1.84367
rhand -10.2116 -412.76
rfingers 7.12502
rthumb -164.22 97.863
lclavicle -3.97569e-015 1.35174e-014
lhumerus -30.2606 1.14256 80.5333
lradius 27.0695
lwrist -0.0917851
lhand -23.7321 -13.3195
lfingers 7.12502
lthumb 2.73613 16.6427
rfemur -32.4814 12.2184 15.2704
rtibia 17.438
rfoot -19.7966 -2.6877
rtoes -14.276
lfemur -28.2009 -4.73031 -25.8421
ltibia 14.9887
lfoot -12.0897 3.02845
ltoes -41.9314
379
root 11.5991 18.8498 17.5115 -153.918 4.94416 178.638
lowerback -27.4421 -4.03689 -8.666
upperback 0.339297 -1.88838 -1.01357
thorax 15.2758 -1.24868 2.93858
lowerneck -4.63276 -2.84255 0.0294596
upperneck 20.4624 -3.57111 4.25092
head 7.08447 -0.896684 1.16254
rclavicle -1.11319e-014 4.21423e-014
rhumerus -42.5237 -21.1261 -73.9095
rradius 29.7877
rwrist 2.39477
rhand -10.0113 -413.269
rfingers 7.12502
rthumb -164.027 97.3694
lclavicle -1.11319e-014 4.21423e-014
lhumerus -30.1893 1.47377 80.4418
lradius 26.6931
lwrist -0.298654
lhand -23.7628 -13.0624
lfingers 7.12502
lthumb 2.70645 16.9002
rfemur -32.289 12.2752 15.2712
rtibia 17.2743
rfoot -19.9047 -2.77689
rtoes -14.1865
lfemur -28.0555 -4.7327 -25.8208
ltibia 14.8931
lfoot -11.9954 3.02286
ltoes -42.4026
380
root 11.6011 18.8525 17.4956 -153.913 4.86436 178.643
lowerback -27.5648 -4.09562 -8.74699
upperback 0.287327 -1.91293 -1.02475
thorax 15.2779 -1.25747 2.9578
lowerneck -4.26994 -2.74048 0.102735
upperneck 19.7212 -3.48073 4.37447
head 6.77912 -0.878891 1.19439
rclavicle -1.15295e-014 -1.19271e-014
rhumerus -42.3973 -21.1654 -74.1597
rradius 29.8506
rwrist 1.83455
rhand -10.2017 -413.284
rfingers 7.12502
rthumb -164.211 97.3396
lclavicle -1.15295e-014 -1.19271e-014
lhumerus -30.2531 1.41865 80.3445
lradius 26.3719
lwrist -0.168172
lhand -23.7767 -12.8979
lfingers 7.12502
lthumb 2.69305 17.0648
rfemur -32.1523 12.2462 15.2989
rtibia 17.1322
rfoot -19.9558 -2.74311
rtoes -13.4085
lfemur -27.9407 -4.76251 -25.7709
ltibia 14.7645
lfoot -11.9374 2.98511
ltoes -42.6368
381
root 11.6028 18.8542 17.4817 -153.815 4.79991 178.609
lowerback -27.6416 -4.17642 -8.89495
upperback 0.0934701 -1.94814 -0.996787
thorax 15.0957 -1.26106 3.05633
lowerneck -3.98713 -2.68113 0.054269
upperneck 19.411 -3.40638 4.48172
head 6.6303 -0.852311 1.24296
rclavicle 1.98785e-015 1.90833e-014
rhumerus -42.5278 -20.8207 -74.4018
rradius 30.063
rwrist 0.912153
rhand -10.4192 -413.687
rfingers 7.12502
rthumb -164.42 96.9203
lclavicle 1.98785e-015 1.90833e-014
lhumerus -30.4655 1.44545 80.3029
lradius 25.9262
lwrist -0.134624
lhand -23.735 -12.8305
lfingers 7.12502
lthumb 2.7333 17.1317
rfemur -32.1512 12.208 15.266
rtibia 17.0392
rfoot -19.9504 -2.73209
rtoes -12.9119
lfemur -27.9291 -4.76336 -25.8036
ltibia 14.6507
lfoot -11.9395 2.84412
ltoes -42.5457
